<?xml version="1.0" standalone="no"?><!DOCTYPE svg PUBLIC "-//W3C//DTD SVG 1.1//EN" "http://www.w3.org/Graphics/SVG/1.1/DTD/svg11.dtd"><svg t="1684659658622" class="icon" viewBox="0 0 1024 1024" version="1.1" xmlns="http://www.w3.org/2000/svg" p-id="14700" xmlns:xlink="http://www.w3.org/1999/xlink" width="200" height="200"><path d="M798.63 249.97h-76.94L525.88 108.55c-9.85-7.11-23.6-4.9-30.72 4.95-7.11 9.85-4.9 23.6 4.95 30.72l146.42 105.75H227.37c-58.41 0-105.92 47.52-105.92 105.92v313.69c0 58.41 47.52 105.92 105.92 105.92h571.26c58.41 0 105.92-47.52 105.92-105.92V355.9c0.01-58.41-47.51-105.93-105.92-105.93z m27.54 268.37c0 92.41-75.18 167.58-167.58 167.58S491 610.74 491 518.34s75.18-167.58 167.58-167.58 167.59 75.18 167.59 167.58z m-575.96 78.79h184.4c12.15 0 22 9.85 22 22s-9.85 22-22 22h-184.4c-12.15 0-22-9.85-22-22s9.85-22 22-22z m-22-78.79c0-12.15 9.85-22 22-22h139.61c12.15 0 22 9.85 22 22s-9.85 22-22 22H250.21c-12.15 0-22-9.85-22-22z m206.4-78.79h-184.4c-12.15 0-22-9.85-22-22s9.85-22 22-22h184.4c12.15 0 22 9.85 22 22s-9.85 22-22 22z" fill="#647AFF" p-id="14701"></path><path d="M658.58 518.34m-123.58 0a123.58 123.58 0 1 0 247.16 0 123.58 123.58 0 1 0-247.16 0Z" fill="#647AFF" p-id="14702"></path></svg>