<?xml version="1.0" standalone="no"?><!DOCTYPE svg PUBLIC "-//W3C//DTD SVG 1.1//EN" "http://www.w3.org/Graphics/SVG/1.1/DTD/svg11.dtd"><svg t="1684660000208" class="icon" viewBox="0 0 1024 1024" version="1.1" xmlns="http://www.w3.org/2000/svg" p-id="4635" xmlns:xlink="http://www.w3.org/1999/xlink" width="200" height="200"><path d="M512 512m-512 0a512 512 0 1 0 1024 0 512 512 0 1 0-1024 0Z" fill="#FF9784" opacity=".15" p-id="4636"></path><path d="M744.925091 512.965818a1.954909 1.954909 0 0 1 0.500364-1.966545 71.272727 71.272727 0 0 0-51.74691-120.087273l-79.802181-1.361455a2.059636 2.059636 0 0 1-1.780364-0.942545 2.024727 2.024727 0 0 1-0.267636-1.966545 170.589091 170.589091 0 0 0-13.730909-144.465455 42.030545 42.030545 0 0 0-6.737455-8.541091 70.981818 70.981818 0 0 0-49.722182-20.270545 71.668364 71.668364 0 0 0-68.340363 51.060363 41.786182 41.786182 0 0 0-1.664 11.927273 121.704727 121.704727 0 0 1-0.698182 12.939636 119.854545 119.854545 0 0 1-93.090909 104.157091 43.054545 43.054545 0 0 0-11.089455 4.061091 97.117091 97.117091 0 0 0-33.629091 29.905455 95.813818 95.813818 0 0 0-17.349818 57.460363l4.119273 180.305455a96.581818 96.581818 0 0 0 96.523636 94.324364h215.517091-0.128a81.233455 81.233455 0 0 0 41.553455-11.392l1.524363-0.465455a71.330909 71.330909 0 0 0 46.021818-89.774545 2.327273 2.327273 0 0 1 0.558546-1.896728 71.365818 71.365818 0 0 0 10.24-65.803636 2.618182 2.618182 0 0 1 0.698182-2.478546 71.319273 71.319273 0 0 0 12.544-74.658909m-112 76.264728a109.451636 109.451636 0 0 1-201.611637 0 20.061091 20.061091 0 0 1 36.933818-15.627637 69.352727 69.352727 0 0 0 127.732364 0 20.061091 20.061091 0 0 1 36.945455 15.627637" fill="#FC7D5D" p-id="4637"></path><path d="M272.290909 486.411636h-11.729454a12.404364 12.404364 0 0 0-13.102546 11.531637v167.028363a12.404364 12.404364 0 0 0 13.102546 11.531637h11.729454a12.404364 12.404364 0 0 0 13.102546-11.531637v-167.028363a12.404364 12.404364 0 0 0-13.102546-11.531637" fill="#FC7D5D" opacity=".5" p-id="4638"></path></svg>